<svg data-v-423bf9ae="" xmlns="http://www.w3.org/2000/svg" viewBox="0 0 241.394203875796 60" class="font"><!----><!----><!----><g data-v-423bf9ae="" id="a5364ced-c969-4bde-97f5-4bfdd3d0f9de" fill="white" transform="matrix(4.979253427292024,0,0,4.979253427292024,-2.439834333320789,-18.77178580275637)"><path d="M8.69 5.68C8.69 5.84 8.54 5.96 8.36 5.96L5.68 5.96L5.68 15.47C5.68 15.65 5.56 15.81 5.42 15.81L3.77 15.81C3.63 15.81 3.50 15.65 3.50 15.47L3.50 5.96L0.77 5.96C0.62 5.96 0.49 5.84 0.49 5.68L0.49 4.05C0.49 3.89 0.62 3.78 0.77 3.78L8.36 3.78C8.54 3.78 8.69 3.89 8.69 4.05ZM18.09 15.54C18.09 15.69 17.96 15.82 17.82 15.82L10.16 15.82C10.01 15.82 9.88 15.69 9.88 15.54L9.88 4.06C9.88 3.91 10.01 3.78 10.16 3.78L17.54 3.78C17.70 3.78 17.82 3.91 17.82 4.06L17.82 5.70C17.82 5.85 17.70 5.96 17.54 5.96L12.07 5.96L12.07 8.71L17.26 8.71C17.42 8.71 17.54 8.82 17.54 8.97L17.54 10.61C17.54 10.77 17.42 10.89 17.26 10.89L12.07 10.89L12.07 13.62L17.82 13.62C17.96 13.62 18.09 13.75 18.09 13.90ZM23.73 12.05C23.73 12.63 23.62 13.16 23.39 13.64C23.17 14.13 22.82 14.56 22.37 14.91C21.69 15.46 20.80 15.76 19.85 15.81C19.73 15.79 19.63 15.68 19.63 15.54L19.63 13.90C19.63 13.78 19.73 13.65 19.85 13.62L19.91 13.61C20.45 13.55 21.55 13.27 21.55 12.05L21.55 5.96L19.91 5.96C19.75 5.96 19.63 5.85 19.63 5.70L19.63 4.06C19.63 3.91 19.75 3.78 19.91 3.78L23.39 3.78C23.53 3.78 23.67 3.86 23.72 3.98L23.72 3.99C23.73 4.00 23.73 4.02 23.73 4.05ZM28.95 5.95L28.95 13.61L30.79 13.61C30.98 13.61 31.14 13.73 31.14 13.89L31.14 15.53C31.14 15.68 30.98 15.81 30.79 15.81L24.85 15.81C24.70 15.81 24.57 15.68 24.57 15.53L24.57 13.89C24.57 13.73 24.70 13.61 24.85 13.61L26.75 13.61L26.75 5.95L24.85 5.95C24.70 5.95 24.57 5.84 24.57 5.68L24.57 4.05C24.57 3.89 24.70 3.77 24.85 3.77L30.79 3.77C30.98 3.77 31.14 3.89 31.14 4.05L31.14 5.68C31.14 5.84 30.98 5.95 30.79 5.95ZM41.09 15.37L38.86 11.42L38.56 10.89L38.49 10.77C40.52 10.32 41.57 8.82 41.57 7.35C41.57 6.38 41.12 5.46 40.35 4.82C39.56 4.14 38.46 3.79 37.18 3.79L33.10 3.79C32.94 3.79 32.82 3.92 32.82 4.06L32.82 5.17L32.96 5.42L32.96 5.43L34.82 8.71L32.82 8.71L32.82 15.54C32.82 15.69 32.94 15.82 33.10 15.82L34.73 15.82C34.87 15.82 35 15.69 35 15.54L35 10.89L36.05 10.89L36.34 11.42L38.74 15.65L38.77 15.69C38.81 15.76 38.89 15.82 38.99 15.82L40.87 15.82C41.02 15.82 41.13 15.69 41.13 15.53C41.13 15.48 41.13 15.44 41.10 15.40ZM37.03 8.19L35.78 5.98L37.18 5.98C38.70 5.98 39.37 6.69 39.37 7.35C39.37 7.91 38.86 8.53 37.73 8.68C37.60 8.69 37.46 8.71 37.32 8.71ZM46.79 5.95L46.79 13.61L48.62 13.61C48.82 13.61 48.97 13.73 48.97 13.89L48.97 15.53C48.97 15.68 48.82 15.81 48.62 15.81L42.69 15.81C42.53 15.81 42.41 15.68 42.41 15.53L42.41 13.89C42.41 13.73 42.53 13.61 42.69 13.61L44.59 13.61L44.59 5.95L42.69 5.95C42.53 5.95 42.41 5.84 42.41 5.68L42.41 4.05C42.41 3.89 42.53 3.77 42.69 3.77L48.62 3.77C48.82 3.77 48.97 3.89 48.97 4.05L48.97 5.68C48.97 5.84 48.82 5.95 48.62 5.95Z"></path></g><!----><!----></svg>